<?xml version="1.0" encoding="UTF-8" standalone="no"?>
<!DOCTYPE svg PUBLIC "-//W3C//DTD SVG 20010904//EN"
"http://www.w3.org/TR/2001/REC-SVG-20010904/DTD/svg10.dtd">
<!-- Created with Inkscape (http://www.inkscape.org/) -->
<svg
   sodipodi:docname="web.svg"
   height="48pt"
   sodipodi:version="0.32"
   width="48pt"
   version="1.0"
   y="0"
   x="0"
   inkscape:version="0.38.1"
   id="svg1"
   sodipodi:docbase="/home/arker/Projects/Notemeister/notemeister/pixmaps"
   xmlns="http://www.w3.org/2000/svg"
   xmlns:inkscape="http://www.inkscape.org/namespaces/inkscape"
   xmlns:sodipodi="http://sodipodi.sourceforge.net/DTD/sodipodi-0.dtd"
   xmlns:xlink="http://www.w3.org/1999/xlink">
  <sodipodi:namedview
     bordercolor="#666666"
     inkscape:pageshadow="2"
     inkscape:window-y="36"
     pagecolor="#ffffff"
     inkscape:window-height="500"
     inkscape:zoom="6.9465337"
     inkscape:window-x="25"
     borderopacity="1.0"
     inkscape:cx="19.779916"
     inkscape:cy="22.294062"
     inkscape:window-width="640"
     inkscape:pageopacity="0.0"
     id="base" />
  <defs
     id="defs3">
    <linearGradient
       id="linearGradient570">
      <stop
         style="stop-color:#ffffff;stop-opacity:1;"
         id="stop571"
         offset="0" />
      <stop
         style="stop-color:#ffffff;stop-opacity:0;"
         id="stop572"
         offset="1" />
    </linearGradient>
    <linearGradient
       id="linearGradient563">
      <stop
         style="stop-color:#e6e6e6;stop-opacity:1.0000000;"
         id="stop564"
         offset="0.0000000" />
      <stop
         style="stop-color:#373737;stop-opacity:1.0000000;"
         id="stop565"
         offset="1.0000000" />
    </linearGradient>
    <linearGradient
       y2="0.96875000"
       xlink:href="#linearGradient563"
       x2="0.98461539"
       y1="0.07031250"
       x1="0.03846154"
       id="linearGradient566" />
    <linearGradient
       y2="0.867188"
       xlink:href="#linearGradient570"
       x2="0.849673"
       y1="0.015625"
       x1="0.006536"
       id="linearGradient569" />
    <linearGradient
       y2="0.946808"
       xlink:href="#linearGradient570"
       x2="0.960000"
       y1="0.021274"
       x1="0.007280"
       id="linearGradient573" />
    <linearGradient
       y2="0.007812"
       xlink:href="#linearGradient563"
       x2="0.006536"
       y1="0.976562"
       x1="0.980392"
       id="linearGradient575" />
    <linearGradient
       y2="0.921875"
       xlink:href="#linearGradient570"
       x2="0.920530"
       y1="0.007813"
       x1="-0.006622"
       id="linearGradient578" />
  </defs>
  <ellipse
     style="font-size:12;opacity:0.302675;fill-rule:evenodd;stroke-width:13.2536;"
     rx="278.198608"
     ry="278.198578"
     transform="matrix(9.421097e-2,0.000000,0.000000,9.421097e-2,6.090894,6.621821)"
     cy="278.069977"
     cx="286.926392"
     id="path1023" />
  <ellipse
     style="font-size:12;fill:url(#linearGradient566);fill-rule:evenodd;stroke: #261933;stroke-width:19.8805;stroke-opacity: 1.0;stroke-dasharray:none;"
     rx="278.198608"
     ry="278.198578"
     transform="matrix(9.421097e-2,0.000000,0.000000,9.421097e-2,3.802327,3.788362)"
     cy="278.069977"
     cx="286.926392"
     id="path983" />
  <path
     style="font-size:12;opacity:0.504459;fill:#000000;fill-rule:evenodd;stroke:#000000;stroke-width:0.114074pt;fill-opacity:1.0000000;"
     d="M 12.015159 12.409227 C 12.969921 11.880202 14.018979 13.750269 15.310075 13.929074 C 16.463219 14.088601 19.267069 12.278469 20.77363 13.139532 C 21.771944 13.567167 20.922468 17.325679 20.618498 19.57593 C 20.235816 21.381965 19.013845 23.968852 18.249476 26.208216 C 17.852108 27.189348 15.090813 30.743981 14.977934 30.969736 C 14.865257 31.195291 16.060057 34.207613 15.316466 34.579609 C 14.541409 35.038311 13.584251 30.629306 11.932149 29.390254 C 11.219224 28.962419 9.575304 29.160804 8.99909 29.61611 C 8.3125859 29.988403 8.903394 33.890059 9.901428 35.030918 C 10.924546 36.565148 12.465268 37.745365 13.398752 39.317456 C 14.608537 41.355237 15.354027 43.679608 16.331662 45.860633 C 16.331662 45.860633 15.524839 48.644708 15.637717 48.644708 C 15.750594 48.644708 17.346959 51.839431 17.346959 51.839431 C 14.069123 49.349743 11.430394 46.920484 9.224694 43.942826 C 7.670115 41.844008 6.4302442 38.963838 6.0659911 36.6101 C 5.9414058 35.805175 7.4471081 35.322201 7.7581797 34.466831 C 8.3285393 33.040783 5.3376127 29.501434 5.2167452 28.345191 C 5.0682959 27.100146 5.8214368 22.119064 7.5325356 19.124722 C 8.757643 16.785767 10.187347 13.421826 12.015159 12.409227 z "
     id="path565" />
  <path
     style="font-size:12;opacity:0.5;fill:#000000;fill-rule:evenodd;stroke:#000000;stroke-width:0.114074pt;fill-opacity:1.0000000;"
     d="M 31.448318 20.929657 C 30.838482 21.805406 30.185791 23.372999 30.545699 24.200799 C 30.937872 25.10252 32.634228 26.100332 33.704463 26.118712 C 34.815354 26.137892 35.94942 24.893447 37.088781 24.313777 C 38.09279 23.803033 39.061335 23.020283 40.134666 22.847172 C 41.392799 22.644294 43.17496 22.580362 44.082972 23.185804 C 44.75424 23.633417 45.021449 25.118502 44.87271 26.006035 C 44.557356 26.682799 43.502103 27.265466 43.857315 27.698195 C 44.168281 27.961808 46.326329 26.371738 46.677552 25.442048 C 46.965636 24.679679 45.598621 23.592861 45.775131 22.621717 C 45.917776 21.980216 48.261726 22.142438 49.046674 22.283385 C 49.69417 22.440915 50.322885 24.046668 50.964588 23.975444 C 51.552448 23.975444 53.019953 22.078509 53.178976 22.087398 C 53.791014 22.188488 54.23593 23.975444 54.23593 23.975444 C 53.182875 24.953181 52.333399 26.295221 51.077263 26.908555 C 49.099513 27.874403 46.765353 28.45597 44.534279 28.71349 C 40.899334 29.132934 36.589824 27.65684 33.47881 28.939045 C 31.024478 29.950743 27.874105 33.28222 27.838345 35.594904 C 27.798887 38.132942 29.445296 42.446352 32.397685 42.707266 C 35.971797 43.100541 39.706832 43.905361 40.994629 45.551874 C 42.000735 46.838371 40.82821 51.686097 40.990235 53.288957 C 41.051173 53.820378 42.597886 52.8789 43.518989 52.403519 C 44.929448 51.675708 46.635596 50.238474 47.128762 48.680766 C 48.064544 45.726086 48.169824 42.06147 47.805824 38.866343 C 47.492962 36.120333 44.766531 31.149642 45.098466 30.856859 C 45.405733 30.585753 47.819807 36.079577 49.723437 37.174286 C 50.828036 37.809295 53.362777 36.873214 54.123148 36.046015 C 54.641487 35.482028 53.19206 33.328669 53.559062 33.000227 C 53.906585 32.689265 56.114583 34.868693 56.266522 34.1285 C 57.476997 28.508113 56.339234 24.358028 54.36049 19.154391 C 52.741255 15.182611 48.151149 9.7150585 43.250081 7.0349524 C 42.559928 6.6541872 39.569082 8.3393725 37.261192 9.8155485 C 35.945525 10.474033 34.578411 12.456875 35.254077 12.932658 C 35.849729 13.402646 37.615409 11.817172 38.864948 11.535678 C 41.104911 11.00026 42.14568 11.290545 43.857315 12.130331 C 43.857315 12.130331 46.28328 14.137847 45.211041 15.627327 C 44.530388 16.528945 42.278034 16.529844 42.278034 16.529844 C 41.789166 16.26683 41.279121 15.640912 40.811429 15.740202 C 40.038375 15.904324 39.385783 16.947591 38.555287 17.319684 C 36.866224 18.075962 34.892171 18.230495 33.253154 19.124722 C 32.326362 19.338589 31.828104 20.352985 31.448318 20.929657 z "
     id="path566" />
  <path
     style="font-size:12;opacity:0.7;fill:url(#linearGradient569);fill-rule:evenodd;stroke:none;stroke-width:0.0998909pt;"
     d="M 10.509496 44.098451 C 10.160676 43.052193 -3.0511215 19.390033 22.061229 7.2635343 C 33.447043 1.7128323 50.268243 12.00307 52.139411 18.16147 C 52.427593 19.093155 40.759489 5.7930846 24.131876 13.148422 C 2.4833876 22.662474 10.814566 45.01376 10.509496 44.098451 z "
     id="path984" />
</svg>
